<?xml version="1.0" encoding="UTF-8" standalone="no"?>
<svg
   class="svg-icon"
   style="width: 1em; height: 1em;vertical-align: middle;fill: currentColor;overflow: hidden;"
   viewBox="0 0 1024 1024"
   version="1.1"
   id="svg2"
   sodipodi:docname="rocket_self2.svg"
   inkscape:version="1.4.3 (0d15f75042, 2025-12-25)"
   xmlns:inkscape="http://www.inkscape.org/namespaces/inkscape"
   xmlns:sodipodi="http://sodipodi.sourceforge.net/DTD/sodipodi-0.dtd"
   xmlns="http://www.w3.org/2000/svg"
   xmlns:svg="http://www.w3.org/2000/svg">
  <defs
     id="defs2" />
  <sodipodi:namedview
     id="namedview2"
     pagecolor="#ffffff"
     bordercolor="#000000"
     borderopacity="0.25"
     inkscape:showpageshadow="2"
     inkscape:pageopacity="0.0"
     inkscape:pagecheckerboard="false"
     inkscape:deskcolor="#d1d1d1"
     showgrid="false"
     inkscape:zoom="0.81738281"
     inkscape:cx="427.58423"
     inkscape:cy="512"
     inkscape:window-width="1920"
     inkscape:window-height="1046"
     inkscape:window-x="0"
     inkscape:window-y="0"
     inkscape:window-maximized="1"
     inkscape:current-layer="svg2">
    <inkscape:grid
       id="grid2"
       units="px"
       originx="0"
       originy="0"
       spacingx="1"
       spacingy="1"
       empcolor="#0099e5"
       empopacity="0.30196078"
       color="#0099e5"
       opacity="0.14901961"
       empspacing="5"
       enabled="true"
       visible="false" />
  </sodipodi:namedview>
  <path
     id="path15"
     style="width:1em;height:1em;vertical-align:middle;fill:#dedede;overflow:hidden;fill-opacity:1"
     d="M 998.34961 -0.05078125 L 998.40039 0 C 865.53639 0 747.16157 22.52715 646.45117 66.96875 C 563.45597 103.62795 492.38962 155.03432 435.19922 219.85352 C 424.54962 231.93672 414.66871 244.17294 405.50391 256.46094 C 361.36951 259.37934 316.2103 276.94155 271.1543 308.68555 C 233.0103 335.51435 194.71278 372.68465 157.23438 419.12305 C 94.258375 497.15185 55.552462 574.10643 53.914062 577.33203 A 25.6 25.6 0 0 0 94.873047 606.92383 C 95.129047 606.66783 119.60403 582.60515 161.33203 559.00195 C 195.73843 539.54595 248.77999 516.66003 312.93359 512.61523 C 329.16399 554.13843 375.603 603.80222 397.875 626.07422 C 420.147 648.34622 469.81078 694.78327 511.33398 711.01367 C 507.28918 775.16727 484.40327 828.21079 464.94727 862.61719 C 441.29287 904.39639 417.28097 928.81864 417.07617 929.02344 A 25.6512 25.6512 0 0 0 446.61719 970.03516 C 449.84279 968.39676 526.79737 929.68889 604.82617 866.71289 C 651.26457 829.23449 688.43487 790.93697 715.26367 752.79297 C 747.00767 707.68577 764.51868 662.57971 767.48828 618.44531 C 779.72508 609.33171 791.9613 599.44885 804.0957 588.74805 C 868.9149 531.55765 920.31932 460.49325 956.97852 377.49805 C 1001.4201 276.83885 1023.9492 158.41283 1023.9492 25.548828 L 1023.9492 -0.05078125 L 998.34961 -0.05078125 z M 972.54492 51.558594 C 967.37372 265.93299 897.74149 438.01597 770.30469 550.45117 L 770.25195 550.40039 C 663.75595 644.35239 553.47161 665.59961 537.59961 665.59961 C 537.49721 665.59961 527.00068 665.39532 498.73828 645.47852 C 479.02628 631.60332 456.0386 611.83938 434.125 589.92578 C 412.2114 568.01218 392.44747 545.0245 378.57227 525.3125 C 358.65547 497.0501 358.45117 486.55357 358.45117 486.45117 C 358.45117 470.57917 379.69839 360.29483 473.65039 253.79883 C 586.08559 126.41323 758.17052 56.729794 972.54492 51.558594 z " />
  <path
     d="M 521.8816,864.768 A 397.3632,397.3632 0 0 0 562.4832,714.0352 C 596.3264,707.84 649.8304,690.6368 707.9936,657.4592 680.3456,741.376 592.5888,815.9744 521.8304,864.768 Z"
     id="path13"
     style="width:1em;height:1em;vertical-align:middle;fill:#d40000;overflow:hidden" />
  <path
     style="fill:#ff7f2a;fill-opacity:1;stroke:none"
     d="M 25.6,1024 A 25.5488,25.5488 0 0 1 1.536,989.696 C 80.3328,773.0688 163.1744,663.1936 247.7056,663.1936 c 27.904,0 53.9648,11.9808 77.568,35.5328 37.2736,37.2736 38.6048,74.3936 33.1776,98.9696 -17.1008,77.2096 -126.1568,152.832 -324.096,224.8192 a 26.112,26.112 0 0 1 -8.7552,1.536 z"
     id="path5"
     inkscape:label="path5" />
  <path
     style="fill:#ffd42a;fill-opacity:1;stroke:none"
     d="m 247.7568,714.3424 c -25.344,0 -55.1936,22.2208 -86.272,64.256 -30.5664,41.3184 -61.2864,100.1984 -91.5456,175.4624 68.352,-27.4944 123.2896,-55.3984 163.7888,-83.2 54.6304,-37.5296 70.8096,-66.56 74.752,-84.2752 3.9424,-17.7152 -2.4064,-34.6624 -19.4048,-51.6608 -13.824,-13.824 -27.3408,-20.5312 -41.3696,-20.5312 z"
     id="path4" />
  <path
     style="fill:#dedede;fill-opacity:1"
     d="m 691.2,460.8 c -70.5536,0 -128,-57.4464 -128,-128 0,-70.5536 57.4464,-128 128,-128 70.5536,0 128,57.4464 128,128 0,70.5536 -57.4464,128 -128,128 z"
     id="path3" />
  <path
     style="fill:#2ad4ff;fill-opacity:1"
     d="m 691.2,256 c -42.3424,0 -76.8,34.4576 -76.8,76.8 0,42.3424 34.4576,76.8 76.8,76.8 42.3424,0 76.8,-34.4576 76.8,-76.8 0,-42.3424 -34.4576,-76.8 -76.8,-76.8 z"
     id="path1" />
  <path
     d="M 159.0784,502.1696 C 207.872,431.36 282.4704,343.552 366.5408,315.9552 333.312,374.1696 316.1088,427.6224 309.9136,461.5168 a 398.5408,398.5408 0 0 0 -150.8352,40.6528 z"
     id="path2"
     style="fill:#d40000" />
</svg>
