<?xml version="1.0" encoding="UTF-8" standalone="no"?>
<svg
   class="svg-icon"
   style="width: 1em; height: 1em;vertical-align: middle;fill: currentColor;overflow: hidden;"
   viewBox="0 0 1024 1024"
   version="1.1"
   id="svg2"
   sodipodi:docname="rocket_self5.svg"
   inkscape:version="1.4.3 (0d15f75042, 2025-12-25)"
   xmlns:inkscape="http://www.inkscape.org/namespaces/inkscape"
   xmlns:sodipodi="http://sodipodi.sourceforge.net/DTD/sodipodi-0.dtd"
   xmlns="http://www.w3.org/2000/svg"
   xmlns:svg="http://www.w3.org/2000/svg">
  <defs
     id="defs2" />
  <sodipodi:namedview
     id="namedview2"
     pagecolor="#ffffff"
     bordercolor="#000000"
     borderopacity="0.25"
     inkscape:showpageshadow="2"
     inkscape:pageopacity="0.0"
     inkscape:pagecheckerboard="false"
     inkscape:deskcolor="#d1d1d1"
     showgrid="false"
     inkscape:zoom="0.81738281"
     inkscape:cx="427.58423"
     inkscape:cy="512"
     inkscape:window-width="1920"
     inkscape:window-height="1046"
     inkscape:window-x="0"
     inkscape:window-y="0"
     inkscape:window-maximized="1"
     inkscape:current-layer="svg2">
    <inkscape:grid
       id="grid2"
       units="px"
       originx="0"
       originy="0"
       spacingx="1"
       spacingy="1"
       empcolor="#0099e5"
       empopacity="0.30196078"
       color="#0099e5"
       opacity="0.14901961"
       empspacing="5"
       enabled="true"
       visible="false" />
  </sodipodi:namedview>
  <path
     id="path15"
     style="overflow:hidden;fill:#dedede;fill-opacity:1"
     d="M 25.588588,-0.05078125 25.537808,0 C 158.40181,0 276.77663,22.52715 377.48703,66.96875 c 82.9952,36.6592 154.06155,88.06557 211.25195,152.88477 10.6496,12.0832 20.53051,24.31942 29.69531,36.60742 44.1344,2.9184 89.29361,20.48061 134.34961,52.22461 38.144,26.8288 76.44152,63.9991 113.91992,110.4375 62.976,78.0288 101.68192,154.98338 103.32032,158.20898 a 25.6,25.6 0 0 1 -40.95899,29.5918 c -0.256,-0.256 -24.73098,-24.31868 -66.45898,-47.92188 -34.4064,-19.456 -87.44796,-42.34192 -151.60156,-46.38672 -16.2304,41.5232 -62.66941,91.18699 -84.94141,113.45899 -22.272,22.272 -71.93578,68.70905 -113.45898,84.93945 4.0448,64.1536 26.93071,117.19712 46.38671,151.60352 23.6544,41.7792 47.6663,66.20145 47.8711,66.40625 a 25.6512,25.6512 0 0 1 -29.54102,41.01172 c -3.2256,-1.6384 -80.18018,-40.34627 -158.20898,-103.32227 -46.4384,-37.4784 -83.6087,-75.77592 -110.4375,-113.91992 -31.744,-45.1072 -49.25501,-90.21326 -52.22461,-134.34766 -12.2368,-9.1136 -24.47302,-18.99646 -36.60742,-29.69726 C 155.0233,531.55765 103.61888,460.49325 66.959678,377.49805 22.518098,276.83885 -0.01100156,158.41283 -0.01100156,25.548828 V -0.05078125 Z M 51.393278,51.558594 C 56.564478,265.93299 126.19671,438.01597 253.63351,550.45117 l 0.0527,-0.0508 c 106.496,93.952 216.78034,115.19922 232.65234,115.19922 0.1024,0 10.59893,-0.20429 38.86133,-20.12109 19.712,-13.8752 42.69968,-33.63914 64.61328,-55.55274 21.9136,-21.9136 41.67753,-44.90128 55.55273,-64.61328 19.9168,-28.2624 20.1211,-38.75893 20.1211,-38.86133 0,-15.872 -21.24722,-126.15634 -115.19922,-232.65234 C 437.85261,126.41323 265.76768,56.729794 51.393278,51.558594 Z" />
  <path
     d="M 502.0566,864.768 A 397.3632,397.3632 0 0 1 461.455,714.0352 c -33.8432,-6.1952 -87.3472,-23.3984 -145.5104,-56.576 27.648,83.9168 115.4048,158.5152 186.1632,207.3088 z"
     id="path13"
     style="overflow:hidden;fill:#d40000" />
  <path
     style="fill:#ff7f2a;fill-opacity:1;stroke:none"
     d="m 998.3382,1024 a 25.5488,25.5488 0 0 0 24.064,-34.304 C 943.6054,773.0688 860.7638,663.1936 776.2326,663.1936 c -27.904,0 -53.9648,11.9808 -77.568,35.5328 C 661.391,736 660.0598,773.12 665.487,797.696 c 17.1008,77.2096 126.1568,152.832 324.096,224.8192 a 26.112,26.112 0 0 0 8.7552,1.536 z"
     id="path5"
     inkscape:label="path5" />
  <path
     style="fill:#ffd42a;fill-opacity:1;stroke:none"
     d="m 776.1814,714.3424 c 25.344,0 55.1936,22.2208 86.272,64.256 30.5664,41.3184 61.2864,100.1984 91.5456,175.4624 -68.352,-27.4944 -123.2896,-55.3984 -163.7888,-83.2 -54.6304,-37.5296 -70.8096,-66.56 -74.752,-84.2752 -3.9424,-17.7152 2.4064,-34.6624 19.4048,-51.6608 13.824,-13.824 27.3408,-20.5312 41.3696,-20.5312 z"
     id="path4" />
  <path
     style="fill:#dedede;fill-opacity:1"
     d="m 332.7382,460.8 c 70.5536,0 128,-57.4464 128,-128 0,-70.5536 -57.4464,-128 -128,-128 -70.5536,0 -128,57.4464 -128,128 0,70.5536 57.4464,128 128,128 z"
     id="path3" />
  <path
     style="fill:#2ad4ff;fill-opacity:1"
     d="m 332.7382,256 c 42.3424,0 76.8,34.4576 76.8,76.8 0,42.3424 -34.4576,76.8 -76.8,76.8 -42.3424,0 -76.8,-34.4576 -76.8,-76.8 0,-42.3424 34.4576,-76.8 76.8,-76.8 z"
     id="path1" />
  <path
     d="M 864.8598,502.1696 C 816.0662,431.36 741.4678,343.552 657.3974,315.9552 c 33.2288,58.2144 50.432,111.6672 56.6272,145.5616 a 398.5408,398.5408 0 0 1 150.8352,40.6528 z"
     id="path2"
     style="fill:#d40000" />
</svg>
