<?xml version="1.0" encoding="UTF-8" standalone="no"?>
<svg
   class="svg-icon"
   style="overflow:hidden;fill:currentColor"
   viewBox="0 0 1127.9172 553.30945"
   version="1.1"
   id="svg2"
   sodipodi:docname="rocket_self3.svg"
   inkscape:version="1.4.3 (0d15f75042, 2025-12-25)"
   width="1127.9172"
   height="553.30945"
   xmlns:inkscape="http://www.inkscape.org/namespaces/inkscape"
   xmlns:sodipodi="http://sodipodi.sourceforge.net/DTD/sodipodi-0.dtd"
   xmlns="http://www.w3.org/2000/svg"
   xmlns:svg="http://www.w3.org/2000/svg">
  <defs
     id="defs2" />
  <sodipodi:namedview
     id="namedview2"
     pagecolor="#ffffff"
     bordercolor="#000000"
     borderopacity="0.25"
     inkscape:showpageshadow="2"
     inkscape:pageopacity="0.0"
     inkscape:pagecheckerboard="false"
     inkscape:deskcolor="#d1d1d1"
     showgrid="false"
     inkscape:zoom="0.81738281"
     inkscape:cx="438.59498"
     inkscape:cy="284.44445"
     inkscape:window-width="1920"
     inkscape:window-height="1046"
     inkscape:window-x="0"
     inkscape:window-y="0"
     inkscape:window-maximized="1"
     inkscape:current-layer="svg2">
    <inkscape:grid
       id="grid2"
       units="px"
       originx="-6.9012252"
       originy="-216.61959"
       spacingx="1"
       spacingy="1"
       empcolor="#0099e5"
       empopacity="0.30196078"
       color="#0099e5"
       opacity="0.14901961"
       empspacing="5"
       enabled="true"
       visible="false" />
  </sodipodi:namedview>
  <path
     id="path124"
     style="opacity:1;fill:none;fill-opacity:1;stroke:#40d9ff;stroke-width:10;stroke-dasharray:none;stroke-opacity:1"
     d="m 425.6129,14.639689 c -0.30069,4.88441 -1.40847,9.78585 -0.90209,14.65326 0.53378,5.13068 3.0027,9.88945 3.98233,14.95395 3.98224,20.5877 7.263,41.30491 10.89452,61.957361 11.69639,48.93223 24.93699,97.52093 35.08916,146.7967 8.10471,39.33799 13.01836,79.2666 19.64754,118.87994 3.5265,21.07303 6.92078,42.1711 10.81935,63.17847 0.70592,3.80384 1.63568,7.59025 2.98674,11.21546 0.14242,0.38214 1.14575,0.47597 1.2211,0.0752 6.1956,-32.9536 -4.24444,-103.64528 -6.68474,-130.33924 -3.00329,-32.85245 -5.29298,-65.77123 -8.63927,-98.59052 -3.2781,-32.15046 -7.85129,-64.15879 -11.23185,-96.29865 -2.80543,-26.672091 -4.31229,-53.474071 -7.32469,-80.123571 -1.36651,-12.08903 -1.60578,-24.74291 -6.36767,-35.9382795 -0.15961,-0.37527 -0.15925,0.82206 -0.0752,1.2211 2.44864,11.6202995 4.78128,23.2720395 7.66395,34.7923495 9.57917,38.28216 20.13215,76.316191 29.71708,114.596911 39.2943,156.93557 22.8994,110.30395 69.99136,256.8099 7.43965,23.14522 15.94429,45.93452 23.9508,68.88981 1.02282,2.9325 5.1941,11.10015 3.13709,8.77326 -3.52165,-3.98371 -4.42053,-9.78944 -7.72082,-13.95838 -29.73048,-37.55594 -59.70654,-74.95911 -91.22335,-111.02905 -34.16097,-39.09611 -69.51558,-77.16765 -105.72629,-114.37333 -18.3913,-18.89665 -40.75357,-33.8538 -57.9731,-53.82405 -2.66305,-3.08848 8.30294,-0.4132 12.21106,0.75175 58.38823,17.40454 115.00363,41.08902 174.35395,54.86013 84.75541,19.66585 170.93601,32.94968 257.07011,45.24357 54.92888,7.83998 110.48574,10.38155 165.7696,15.10819 13.00235,1.11167 26.18646,4.44837 39.07537,2.4056 5.86453,-0.92949 -11.19652,-3.95793 -16.79478,-5.93688 M 462.43971,551.32649 c -19.28628,-44.64175 -45.43298,-85.88446 -69.33698,-128.06762 -10.03866,-17.71511 -20.37393,-35.27417 -29.8125,-53.31613 -1.19557,-2.28537 -3.18151,-5.18891 -1.99116,-7.47698 1.26255,-2.42689 4.81909,-3.09362 7.55216,-3.21228 13.04386,-0.56635 26.10904,0.56584 39.15053,1.18449 15.88656,0.75361 31.74873,1.95455 47.6231,2.93181 4.88442,0.30071 9.823,0.11688 14.65327,0.9021 0.90006,0.14629 -1.63461,0.84227 -2.51739,1.07075 -16.98081,4.39516 -33.98235,8.71625 -51.04258,12.79221 -8.13527,1.94364 -199.1634,46.28832 -221.41615,52.55857 -72.25365,20.35918 -119.869119,32.7041 -180.95104,72.20999 -21.8132366,14.10812 0.155678,15.36233 7.72081,13.95837 M 249.54436,166.8229 c 14.59429,47.63702 16.61921,58.89401 42.15365,111.68535 13.40149,27.70697 29.43944,54.05969 44.03302,81.15773 11.80634,21.92252 24.31558,43.49215 35.16628,65.90305 2.24792,4.64282 4.29928,9.80534 3.98233,14.95396 -0.10332,1.67825 -3.30713,1.23109 -4.95961,0.92041 -8.17441,-1.53687 -16.34982,-3.42383 -24.1214,-6.38792 C 321.57683,425.81728 297.73245,415.582 274.11098,404.9018 190.31929,367.01619 142.96138,343.09491 62.467558,298.71669 44.419441,288.76632 22.896839,282.68932 9.2468406,267.24841 c -4.470919,-5.05754 12.1426384,-6.59825 18.8428044,-7.42012 62.287528,-7.64044 124.927165,-12.07178 187.412185,-17.87996 199.45726,-18.54019 263.36619,-20.70639 488.81988,-55.70815 125.2783,-19.4495 230.37044,-46.91532 350.81669,-83.81576 22.1705,-6.792251 43.8888,-15.100491 65.2264,-24.176341 9.4181,-4.0059 -10.1127,-6.22991 -11.9103,-5.63615 -3.3596,1.10969 -4.767,7.68526 -5.4858,9.46813" />
</svg>
